<svg xmlns="http://www.w3.org/2000/svg" width="28" height="28" viewBox="0 0 28 28">
  <g fill="none" fill-rule="evenodd" transform="translate(1 1)">
    <circle cx="13" cy="13" r="13" fill="#FFF" stroke="#FFF"/>
    <g stroke="#323232" stroke-linecap="round" stroke-linejoin="round" transform="translate(7 8)">
      <polyline points="7.333 .524 7.333 3.667 10.476 3.667"/>
      <path d="M11 0L7.33333333 3.66666667M10.4761905 8.33904762L10.4761905 9.91047619C10.4773878 10.205457 10.354168 10.4872734 10.1368027 10.6866911 9.9194374 10.8861088 9.62807158 10.9846462 9.33428571 10.9580952 7.72243679 10.7829547 6.17414242 10.2321709 4.81380952 9.35 3.54819568 8.5457763 2.47517608 7.4727567 1.67095238 6.20714286.785702792 4.84063066.234793953 3.28480667.0628571429 1.66571429.0363907292 1.37283789.134237719 1.0823227.332496361.865134839.530755003.647946979.811168412.524086457 1.1052381.523809524L2.67666667.523809524C3.20250022.518634203 3.65069092.904078205 3.72428571 1.4247619 3.79061206 1.92765386 3.91361638 2.42142837 4.09095238 2.89666667 4.23486119 3.27950597 4.14281742 3.711089 3.8552381 4.00190476L3.19 4.66714286C3.93567191 5.97852401 5.02147599 7.06432809 6.33285714 7.81L6.99809524 7.1447619C7.288911 6.85718258 7.72049403 6.76513881 8.10333333 6.90904762 8.57857163 7.08638362 9.07234614 7.20938794 9.5752381 7.27571429 10.1019614 7.35002207 10.4893852 7.8072723 10.4761905 8.33904762z"/>
    </g>
  </g>
</svg>
