<svg xmlns="http://www.w3.org/2000/svg" width="55" height="29" viewBox="0 0 55 29">
  <g fill="none" fill-rule="evenodd" transform="translate(0 -6)">
    <path fill="#323232" d="M24.8 13L23.33 13 23.33 12.272C22.826 12.846 22.042 13.168 21.146 13.168 20.04 13.168 18.794 12.426 18.794 10.928 18.794 9.374 20.04 8.73 21.146 8.73 22.056 8.73 22.84 9.024 23.33 9.598L23.33 8.59C23.33 7.806 22.686 7.33 21.748 7.33 20.992 7.33 20.334 7.61 19.746 8.184L19.144 7.162C19.928 6.42 20.908 6.07 21.986 6.07 23.484 6.07 24.8 6.7 24.8 8.52L24.8 13zM21.72 12.16C22.364 12.16 22.994 11.922 23.33 11.46L23.33 10.438C22.994 9.976 22.364 9.738 21.72 9.738 20.894 9.738 20.278 10.214 20.278 10.956 20.278 11.684 20.894 12.16 21.72 12.16zM49.855 29.97C50.177 30.474 50.905 30.866 51.591 30.866 52.767 30.866 53.509 29.942 53.509 28.626 53.509 27.31 52.767 26.372 51.591 26.372 50.905 26.372 50.177 26.792 49.855 27.296L49.855 29.97zM49.855 32L48.385 32 48.385 22.662 49.855 22.662 49.855 26.176C50.387 25.462 51.171 25.07 52.025 25.07 53.761 25.07 55.021 26.442 55.021 28.626 55.021 30.852 53.747 32.168 52.025 32.168 51.143 32.168 50.373 31.748 49.855 31.076L49.855 32z"/>
    <g fill="#FFC500" transform="translate(0 17)">
      <rect width="44" height="2"/>
      <rect width="2" height="18" x="42"/>
    </g>
  </g>
</svg>
