<svg xmlns="http://www.w3.org/2000/svg" width="65" height="29" viewBox="0 0 65 29">
  <g fill="none" fill-rule="evenodd">
    <path fill="#323232" d="M34.8 7L33.33 7 33.33 6.272C32.826 6.846 32.042 7.168 31.146 7.168 30.04 7.168 28.794 6.426 28.794 4.928 28.794 3.374 30.04 2.73 31.146 2.73 32.056 2.73 32.84 3.024 33.33 3.598L33.33 2.59C33.33 1.806 32.686 1.33 31.748 1.33 30.992 1.33 30.334 1.61 29.746 2.184L29.144 1.162C29.928.42 30.908.07 31.986.07 33.484.07 34.8.7 34.8 2.52L34.8 7zM31.72 6.16C32.364 6.16 32.994 5.922 33.33 5.46L33.33 4.438C32.994 3.976 32.364 3.738 31.72 3.738 30.894 3.738 30.278 4.214 30.278 4.956 30.278 5.684 30.894 6.16 31.72 6.16zM59.855 23.97C60.177 24.474 60.905 24.866 61.591 24.866 62.767 24.866 63.509 23.942 63.509 22.626 63.509 21.31 62.767 20.372 61.591 20.372 60.905 20.372 60.177 20.792 59.855 21.296L59.855 23.97zM59.855 26L58.385 26 58.385 16.662 59.855 16.662 59.855 20.176C60.387 19.462 61.171 19.07 62.025 19.07 63.761 19.07 65.021 20.442 65.021 22.626 65.021 24.852 63.747 26.168 62.025 26.168 61.143 26.168 60.373 25.748 59.855 25.076L59.855 26zM4.053 26.168C1.995 26.168.553 24.67.553 22.612.553 20.568 1.995 19.07 4.053 19.07 5.369 19.07 6.167 19.63 6.643 20.274L5.677 21.17C5.299 20.638 4.781 20.372 4.123 20.372 2.891 20.372 2.079 21.296 2.079 22.612 2.079 23.928 2.891 24.866 4.123 24.866 4.781 24.866 5.299 24.586 5.677 24.068L6.643 24.964C6.167 25.608 5.369 26.168 4.053 26.168z"/>
    <g fill="#FFC500" transform="translate(10 11)">
      <rect width="44" height="2"/>
      <rect width="2" height="18" x="42"/>
      <rect width="2" height="18"/>
    </g>
  </g>
</svg>
