<svg xmlns="http://www.w3.org/2000/svg" width="44" height="13" viewBox="0 0 44 13">
  <g fill="none" fill-rule="evenodd" transform="translate(0 -6)">
    <path fill="#323232" d="M24.8,13 L23.33,13 L23.33,12.272 C22.826,12.846 22.042,13.168 21.146,13.168 C20.04,13.168 18.794,12.426 18.794,10.928 C18.794,9.374 20.04,8.73 21.146,8.73 C22.056,8.73 22.84,9.024 23.33,9.598 L23.33,8.59 C23.33,7.806 22.686,7.33 21.748,7.33 C20.992,7.33 20.334,7.61 19.746,8.184 L19.144,7.162 C19.928,6.42 20.908,6.07 21.986,6.07 C23.484,6.07 24.8,6.7 24.8,8.52 L24.8,13 Z M21.72,12.16 C22.364,12.16 22.994,11.922 23.33,11.46 L23.33,10.438 C22.994,9.976 22.364,9.738 21.72,9.738 C20.894,9.738 20.278,10.214 20.278,10.956 C20.278,11.684 20.894,12.16 21.72,12.16 Z"/>
    <rect width="44" height="2" fill="#FFC500" transform="translate(0 17)"/>
  </g>
</svg>
