<svg xmlns="http://www.w3.org/2000/svg" width="51" height="35" viewBox="0 0 51 35">
  <g fill="none">
    <path fill="#323232" d="M41.6189024,25.591791 C40.375,25.591791 39.1932927,26.0828358 38.3018293,26.9708955 C37.4103659,27.869403 36.9128049,29.0395522 36.9128049,30.2932836 C36.9128049,31.5470149 37.4,32.7171642 38.3018293,33.6156716 C39.2036585,34.5037313 40.375,34.9947761 41.6189024,34.9947761 C44.1689024,34.9947761 46.2420732,32.8843284 46.2420732,30.2932836 C46.2420732,27.7022388 44.1689024,25.591791 41.6189024,25.591791 Z M41.6189024,32.9052239 C40.1884146,32.9052239 38.9859756,31.7141791 38.9859756,30.2932836 C38.9859756,28.8723881 40.1884146,27.6813433 41.6189024,27.6813433 C43.0286585,27.6813433 44.1689024,28.8514925 44.1689024,30.2932836 C44.1689024,31.7350746 43.0286585,32.9052239 41.6189024,32.9052239 Z M42.8213415,9.93059701 C42.6347561,9.75298507 42.3859756,9.65895522 42.1268293,9.65895522 L36.8091463,9.65895522 C36.2390244,9.65895522 35.772561,10.1291045 35.772561,10.7037313 L35.772561,19.2708955 C35.772561,19.8455224 36.2390244,20.3156716 36.8091463,20.3156716 L45.2469512,20.3156716 C45.8170732,20.3156716 46.2835366,19.8455224 46.2835366,19.2708955 L46.2835366,13.5350746 C46.2835366,13.2425373 46.1591463,12.9604478 45.9414634,12.7619403 L42.8213415,9.93059701 Z M44.2103659,18.2261194 L37.8457317,18.2261194 L37.8457317,11.7380597 L41.722561,11.7380597 L44.2103659,13.9947761 L44.2103659,18.2261194 Z M16.3054878,25.591791 C15.0615854,25.591791 13.879878,26.0828358 12.9884146,26.9708955 C12.0969512,27.869403 11.5993902,29.0395522 11.5993902,30.2932836 C11.5993902,31.5470149 12.0865854,32.7171642 12.9884146,33.6156716 C13.8902439,34.5037313 15.0615854,34.9947761 16.3054878,34.9947761 C18.8554878,34.9947761 20.9286585,32.8843284 20.9286585,30.2932836 C20.9286585,27.7022388 18.8554878,25.591791 16.3054878,25.591791 Z M16.3054878,32.9052239 C14.875,32.9052239 13.672561,31.7141791 13.672561,30.2932836 C13.672561,28.8723881 14.875,27.6813433 16.3054878,27.6813433 C17.7152439,27.6813433 18.8554878,28.8514925 18.8554878,30.2932836 C18.8554878,31.7350746 17.7152439,32.9052239 16.3054878,32.9052239 Z M9.39146341,26.8768657 L7.30792683,26.8768657 L7.30792683,24.0977612 C7.30792683,23.5231343 6.84146341,23.0529851 6.27134146,23.0529851 C5.70121951,23.0529851 5.2347561,23.5231343 5.2347561,24.0977612 L5.2347561,27.9216418 C5.2347561,28.4962687 5.70121951,28.9664179 6.27134146,28.9664179 L9.39146341,28.9664179 C9.96158537,28.9664179 10.4280488,28.4962687 10.4280488,27.9216418 C10.4280488,27.3470149 9.96158537,26.8768657 9.39146341,26.8768657 Z M50.5231707,11.2574627 L43.1012195,5.0619403 C42.9146341,4.90522388 42.6865854,4.82164179 42.4378049,4.82164179 L33.7097561,4.82164179 L33.7097561,1.06044776 C33.7097561,0.485820896 33.2432927,0.0156716418 32.6731707,0.0156716418 L6.27134146,0.0156716418 C5.70121951,0.0156716418 5.2347561,0.485820896 5.2347561,1.06044776 L5.2347561,8.70820896 C5.2347561,9.28283582 5.70121951,9.75298507 6.27134146,9.75298507 C6.84146341,9.75298507 7.30792683,9.28283582 7.30792683,8.70820896 L7.30792683,2.10522388 L31.6469512,2.10522388 L31.6469512,26.8768657 L23.1469512,26.8768657 C22.5768293,26.8768657 22.1103659,27.3470149 22.1103659,27.9216418 C22.1103659,28.4962687 22.5768293,28.9664179 23.1469512,28.9664179 L35.8036585,28.9664179 C36.3737805,28.9664179 36.8402439,28.4962687 36.8402439,27.9216418 C36.8402439,27.3470149 36.3737805,26.8768657 35.8036585,26.8768657 L33.720122,26.8768657 L33.720122,6.91119403 L42.075,6.91119403 L48.8335366,12.5529851 L48.7609756,26.8559701 L47.6829268,26.8559701 C47.1128049,26.8559701 46.6463415,27.3261194 46.6463415,27.9007463 C46.6463415,28.4753731 47.1128049,28.9455224 47.6829268,28.9455224 L49.7871951,28.9455224 C50.3573171,28.9455224 50.8237805,28.4858209 50.8237805,27.911194 L50.9067073,12.0723881 C50.8963415,11.7589552 50.7615854,11.4559701 50.5231707,11.2574627 Z"/>
    <path fill="#FFC500" d="M14.6469512 21.1828358C14.6469512 20.608209 14.1804878 20.1380597 13.6103659 20.1380597L1.03658537 20.1380597C.466463415 20.1380597 0 20.608209 0 21.1828358 0 21.7574627.466463415 22.2276119 1.03658537 22.2276119L13.6103659 22.2276119C14.1804878 22.2276119 14.6469512 21.7679104 14.6469512 21.1828358zM3.14085366 17.411194L15.7146341 17.4843284C16.2847561 17.4843284 16.7512195 17.0246269 16.7615854 16.45 16.7719512 15.8649254 16.3054878 15.3947761 15.7353659 15.3947761L3.16158537 15.3216418C3.15121951 15.3216418 3.15121951 15.3216418 3.15121951 15.3216418 2.58109756 15.3216418 2.11463415 15.7813433 2.11463415 16.3559701 2.10426829 16.9410448 2.57073171 17.411194 3.14085366 17.411194zM5.2554878 12.6679104L17.8292683 12.6679104C18.3993902 12.6679104 18.8658537 12.1977612 18.8658537 11.6231343 18.8658537 11.0485075 18.3993902 10.5783582 17.8292683 10.5783582L5.2554878 10.5783582C4.68536585 10.5783582 4.21890244 11.0485075 4.21890244 11.6231343 4.21890244 12.1977612 4.68536585 12.6679104 5.2554878 12.6679104z"/>
  </g>
</svg>
