<svg xmlns="http://www.w3.org/2000/svg" width="45" height="41" viewBox="0 0 45 41">
  <g fill="none" fill-rule="evenodd">
    <path fill="#323232" fill-rule="nonzero" d="M18.084734,4.44102804 C14.1548936,0.511158879 6.46468085,0.0554649533 1.02130851,0.0554649533 C0.45756383,0.0554649533 0,0.513170561 0,1.07720794 C0,6.52340654 0.453446809,14.2176121 4.38328723,18.1495888 C6.04187234,19.809035 8.58485106,20.5508668 11.1053298,20.5508668 C13.8443936,20.5508668 16.5589468,19.6741565 18.084734,18.1475771 C21.0117447,15.2190467 21.5489681,7.90495327 18.084734,4.44102804 Z M16.6407128,16.704722 C14.4551489,18.8893131 8.38675532,19.2632944 5.82951064,16.704722 C2.65739362,13.5310537 2.10791489,7.08342056 2.04864894,2.10517757 C7.02430851,2.1644743 13.4685957,2.71414252 16.640617,5.88790654 C19.1979574,8.44647897 18.8241702,14.5201308 16.6407128,16.704722 Z"/>
    <path fill="#FFC500" fill-rule="nonzero" d="M43.9618404,4.09770093 C38.5184681,4.09770093 30.8282553,4.55138318 26.8983191,8.48326402 C23.4341809,11.9471893 23.9713085,19.2612827 26.8983191,22.1898131 C28.4241064,23.7143808 31.1366489,24.5910911 33.8757128,24.5910911 C36.3961915,24.5910911 38.9371596,23.851271 40.599766,22.1919206 C44.5275957,18.2600397 44.9830532,10.5658341 44.9830532,5.11953972 C44.9831489,4.55550234 44.5255851,4.09770093 43.9618404,4.09770093 Z M39.1516277,20.7449463 C36.594383,23.3035187 30.523883,22.9295374 28.3404255,20.7449463 C26.1569681,18.5603551 25.7831809,12.4867033 28.3404255,9.92813084 C31.5125426,6.75436682 37.956734,6.2046986 42.9323936,6.14540187 C42.8732234,11.1256565 42.3237447,17.5732897 39.1516277,20.7449463 Z"/>
    <path fill="#323232" d="M36.5862447,12.942493 C36.3452553,12.429514 35.6548404,12.2538271 35.1462447,12.4908224 C27.3130851,16.1754579 23.4649149,22.6005794 21.7164255,29.205507 C19.5533617,15.1617617 13.2970213,10.8804229 10.6437447,9.06368224 C10.3128511,8.83684112 10.0554894,8.67130841 9.91254255,8.53029907 C9.51424468,8.13179439 8.8667234,8.13179439 8.46842553,8.53029907 C8.07012766,8.92880374 8.07012766,9.57666121 8.46842553,9.97516589 C8.6706383,10.175472 9.01991489,10.4268364 9.49174468,10.7496636 C12.4820426,12.7953528 20.4255,18.2334089 20.4255,39.9059322 C20.4255,40.4699696 20.8830638,40.927771 21.4468085,40.927771 C22.0105532,40.927771 22.468117,40.4699696 22.468117,39.9080397 C22.468117,31.1511869 24.8191277,19.6068131 36.0163723,14.3424322 C36.0163723,14.3404206 36.1818191,14.2627313 36.1818191,14.2627313 C36.6904149,14.021521 36.827234,13.4533645 36.5862447,12.942493 Z"/>
    <path fill="#FFC500" d="M20.4255,39.9059322 C20.4255,40.4699696 20.8830638,40.927771 21.4468085,40.927771 C22.0105532,40.927771 22.468117,40.4699696 22.468117,39.9080397 C22.468117,31.1511869 24.8191277,19.6068131 36.0163723,14.3424322 C36.0163723,14.3404206 36.1818191,14.2627313 36.1818191,14.2627313 C36.6904149,14.021521 36.827234,13.4533645 36.5862447,12.942493 C36.3452553,12.429514 35.6548404,12.2538271 35.1462447,12.4908224 C27.3130851,16.1754579 23.4649149,22.6005794 21.7164255,29.205507"/>
  </g>
</svg>
