<svg xmlns="http://www.w3.org/2000/svg" width="46" height="46" viewBox="0 0 46 46">
  <path fill="#FFC500" fill-rule="evenodd" d="M23.0021563,0 C16.7556745,0 15.9717497,0.0273125 13.5183908,0.138958333 C11.0698236,0.251083333 9.3984729,0.638729167 7.936041,1.2075 C6.42329608,1.79495833 5.14007438,2.58079167 3.86164439,3.8596875 C2.58225607,5.13810417 1.79641455,6.4213125 1.20703341,7.9335625 C0.636819134,9.39645833 0.248690091,11.0682708 0.138480609,13.5158542 C0.0287502995,15.9691875 0,16.7535833 0,23 C0,29.2464167 0.0277919562,30.0279375 0.138959781,32.4812708 C0.25156512,34.9298125 0.639214992,36.6011458 1.20751258,38.0635625 C1.7954562,39.5762917 2.58129772,40.8595 3.86020688,42.1379167 C5.13815769,43.4172917 6.42137939,44.2050417 7.93316597,44.7925 C9.39655621,45.3612708 11.0683861,45.7489167 13.5164741,45.8610417 C15.969833,45.9726875 16.7532787,46 22.9992812,46 C29.2462421,46 30.0277711,45.9726875 32.48113,45.8610417 C34.9296972,45.7489167 36.6029646,45.3612708 38.0663549,44.7925 C39.5786206,44.2050417 40.8599256,43.4172917 42.1378764,42.1379167 C43.4172648,40.8595 44.2031063,39.5762917 44.7924874,38.0640417 C45.35791,36.6011458 45.746039,34.9293333 45.8610402,32.48175 C45.9712497,30.0284167 46,29.2464167 46,23 C46,16.7535833 45.9712497,15.9696667 45.8610402,13.5163333 C45.746039,11.0677917 45.35791,9.39645833 44.7924874,7.93404167 C44.2031063,6.4213125 43.4172648,5.13810417 42.1378764,3.8596875 C40.8584881,2.5803125 39.5790998,1.79447917 38.0649173,1.2075 C36.5986521,0.638729167 34.926343,0.251083333 32.4777758,0.138958333 C30.0244169,0.0273125 29.2433671,6.80936788e-15 22.9949687,6.80936788e-15 L23.0021563,0 Z M20.9388431,4.14479167 C21.5512245,4.14383333 22.2345233,4.14479167 23.0021563,4.14479167 C29.1432202,4.14479167 29.871082,4.16683333 32.2961698,4.27704167 C34.5386931,4.37958333 35.7557891,4.75429167 36.5665476,5.06910417 C37.6398921,5.48597917 38.4051292,5.9843125 39.2096584,6.7893125 C40.0146668,7.5943125 40.5130053,8.36097917 40.930843,9.4343125 C41.2456588,10.2441042 41.6208502,11.4611875 41.7229138,13.7036875 C41.8331233,16.1282708 41.8570818,16.8566042 41.8570818,22.9947292 C41.8570818,29.1328542 41.8331233,29.8611875 41.7229138,32.2857708 C41.620371,34.5282708 41.2456588,35.7453542 40.930843,36.5551458 C40.5139637,37.6284792 40.0146668,38.39275 39.2096584,39.1972708 C38.40465,40.0022708 37.6403713,40.5006042 36.5665476,40.9174792 C35.7567475,41.2337292 34.5386931,41.6074792 32.2961698,41.7100208 C29.8715612,41.8202292 29.1432202,41.8441875 23.0021563,41.8441875 C16.8606131,41.8441875 16.1327514,41.8202292 13.7081428,41.7100208 C11.4656194,41.6065208 10.2485234,41.2318125 9.43728581,40.917 C8.36394129,40.500125 7.59726664,40.0017917 6.79225825,39.1967917 C5.98724987,38.3917917 5.48891134,37.6270417 5.07107366,36.5532292 C4.75625788,35.7434375 4.38106647,34.5263542 4.27900291,32.2838542 C4.16879342,29.8592708 4.14675153,29.1309375 4.14675153,22.9889792 C4.14675153,16.8470208 4.16879342,16.1225208 4.27900291,13.6979375 C4.38154564,11.4554375 4.75625788,10.2383542 5.07107366,9.42760417 C5.487953,8.35427083 5.98724987,7.58760417 6.79225825,6.78260417 C7.59726664,5.97760417 8.36394129,5.47927083 9.43728581,5.0614375 C10.2480443,4.7451875 11.4656194,4.3714375 13.7081428,4.26841667 C15.8299149,4.17258333 16.6521735,4.14383333 20.9388431,4.13904167 L20.9388431,4.14479167 Z M35.2794925,7.96375 C33.7557266,7.96375 32.5194637,9.1985625 32.5194637,10.7227917 C32.5194637,12.2465417 33.7557266,13.4827917 35.2794925,13.4827917 C36.8032584,13.4827917 38.0395212,12.2465417 38.0395212,10.7227917 C38.0395212,9.19904167 36.8032584,7.96279167 35.2794925,7.96279167 L35.2794925,7.96375 Z M23.0021563,11.1885417 C16.4791925,11.1885417 11.1905749,16.4771042 11.1905749,23 C11.1905749,29.5228958 16.4791925,34.8090625 23.0021563,34.8090625 C29.5251201,34.8090625 34.811821,29.5228958 34.811821,23 C34.811821,16.4771042 29.5246409,11.1885417 23.0016771,11.1885417 L23.0021563,11.1885417 Z M23.0021563,15.3333333 C27.236117,15.3333333 30.6689028,18.7656042 30.6689028,23 C30.6689028,27.2339167 27.236117,30.6666667 23.0021563,30.6666667 C18.7677163,30.6666667 15.3354097,27.2339167 15.3354097,23 C15.3354097,18.7656042 18.7677163,15.3333333 23.0021563,15.3333333 L23.0021563,15.3333333 Z"/>
</svg>
