<svg xmlns="http://www.w3.org/2000/svg" width="125" height="46" viewBox="0 0 125 46">
  <g fill="none" fill-rule="evenodd" transform="translate(0 -8)">
    <path fill="#FFC500" d="M11.5429688,28.8681641 L11.8652344,29.7324219 C12.0800792,30.3183623 12.2802725,30.7626938 12.4658203,31.0654297 C12.6513681,31.3681656 12.8637683,31.5952141 13.1030273,31.746582 C13.3422864,31.89795 13.6474591,31.9736328 14.0185547,31.9736328 C14.3896503,31.9736328 14.7558576,31.8710948 15.1171875,31.6660156 C15.4785174,31.4609365 15.8837868,31.1289085 16.3330078,30.6699219 L17.4609375,31.7978516 C16.4843701,32.7744189 15.6005899,33.4873024 14.8095703,33.9365234 C14.0185507,34.3857444 13.1640671,34.6103516 12.2460938,34.6103516 C11.191401,34.6103516 10.302738,34.312503 9.58007812,33.7167969 C8.85741826,33.1210908 8.29101768,32.1884829 7.88085938,30.9189453 L7.30957031,29.1757812 C5.51268633,28.9804678 4.14062974,28.3090878 3.19335938,27.1616211 C2.24608901,26.0141544 1.77246094,24.4052838 1.77246094,22.3349609 C1.77246094,21.5634727 1.85058516,20.6796925 2.00683594,19.6835938 C2.16308672,18.687495 2.42675596,17.6352594 2.79785156,16.5268555 C3.16894717,15.4184515 3.68163735,14.3710987 4.3359375,13.3847656 C4.99023765,12.3984326 5.75927292,11.5561558 6.64306641,10.8579102 C7.52685989,10.1596645 8.51073677,9.63720876 9.59472656,9.29052734 C10.6787164,8.94384592 11.8164003,8.77050781 13.0078125,8.77050781 C15.2343861,8.77050781 16.921381,9.35155669 18.0688477,10.5136719 C19.2163143,11.6757871 19.7900391,13.3652233 19.7900391,15.5820312 C19.7900391,16.5390673 19.6826183,17.6157167 19.4677734,18.8120117 C19.2529286,20.0083068 18.9184593,21.1630804 18.4643555,22.2763672 C18.0102516,23.389654 17.4389683,24.3979447 16.7504883,25.3012695 C16.0620083,26.2045944 15.2758833,26.9663055 14.3920898,27.5864258 C13.5082964,28.2065461 12.5585988,28.6337879 11.5429688,28.8681641 Z M6.18164062,23.6972656 C6.18164062,25.0449286 6.37695117,26.01904 6.76757812,26.6196289 C7.15820508,27.2202178 7.79296436,27.5205078 8.671875,27.5205078 C9.14062734,27.5205078 9.5898416,27.413087 10.0195312,27.1982422 C10.5566433,26.934569 11.0693335,26.5292996 11.5576172,25.9824219 C12.163089,25.3085904 12.719724,24.449224 13.2275391,23.4042969 C13.7353541,22.3593698 14.1552718,21.2168031 14.4873047,19.9765625 C14.7607436,18.9706981 14.999999,17.7988348 15.2050781,16.4609375 C15.3222662,15.7187463 15.3808594,14.9863317 15.3808594,14.2636719 C15.3808594,12.9550716 15.1855488,11.9980499 14.7949219,11.3925781 C14.4042949,10.7871063 13.7597701,10.484375 12.8613281,10.484375 C12.0117145,10.484375 11.1865274,10.8627892 10.3857422,11.6196289 C9.58495693,12.3764686 8.85986653,13.4433525 8.21044922,14.8203125 C7.56103191,16.1972725 7.06054863,17.7426672 6.70898438,19.456543 C6.35742012,21.1704187 6.18164062,22.5839788 6.18164062,23.6972656 Z M31.6845703,9.00488281 C32.7099661,9.00488281 33.4912083,9.03417939 34.0283203,9.09277344 C34.7607458,9.16113315 35.4272431,9.31005745 36.027832,9.53955078 C36.628421,9.76904412 37.133787,10.0717755 37.5439453,10.4477539 C37.9541036,10.8237323 38.2666005,11.2778294 38.4814453,11.8100586 C38.6962901,12.3422878 38.8037109,12.9501919 38.8037109,13.6337891 C38.8037109,14.7275445 38.6010762,15.7065386 38.1958008,16.5708008 C37.7905253,17.4350629 37.2168006,18.1796844 36.4746094,18.8046875 C35.7324182,19.4296906 34.7876034,19.9008773 33.6401367,20.2182617 C32.49267,20.5356461 31.2109446,20.6943359 29.7949219,20.6943359 L29.3701172,20.6943359 C28.7744111,20.6943359 28.2763692,20.6699221 27.8759766,20.6210938 L26.8945312,25.0449219 C26.8261715,25.3574234 26.7773439,25.6284168 26.7480469,25.8579102 C26.7187499,26.0874035 26.7041016,26.3876935 26.7041016,26.7587891 C26.7041016,27.2080101 26.8188465,27.5253897 27.0483398,27.7109375 C27.2778332,27.8964853 27.6367163,28.0039061 28.125,28.0332031 L27.9199219,29 L20.3466797,29 L20.5517578,28.0332031 C20.9619161,27.916015 21.2768544,27.7548838 21.496582,27.5498047 C21.7163097,27.3447255 21.9042961,27.0542011 22.0605469,26.6782227 C22.2167977,26.3022442 22.3730461,25.7578161 22.5292969,25.0449219 L25.1953125,12.9599609 C25.3222663,12.3837862 25.3857422,11.8125028 25.3857422,11.2460938 C25.3857422,10.8359354 25.2905283,10.5356455 25.1000977,10.3452148 C24.909667,10.1547842 24.5996115,10.0302737 24.1699219,9.97167969 L24.375,9.00488281 L31.6845703,9.00488281 Z M29.0039062,18.9951172 C29.9902393,18.9951172 30.8007781,18.8828136 31.4355469,18.6582031 C32.0703157,18.4335926 32.6000955,18.0820336 33.0249023,17.6035156 C33.4497092,17.1249976 33.7719716,16.5463901 33.9916992,15.8676758 C34.2114269,15.1889615 34.3212891,14.4541055 34.3212891,13.6630859 C34.3212891,12.6767529 34.0893578,11.9394556 33.6254883,11.4511719 C33.1616188,10.9628882 32.4414111,10.71875 31.4648438,10.71875 C30.917966,10.71875 30.4443379,10.7285155 30.0439453,10.7480469 L28.2421875,18.9951172 L29.0039062,18.9951172 Z M45.1904297,22.4521484 L38.5986328,22.4521484 L39.2724609,19.3759766 L45.8642578,19.3759766 L45.1904297,22.4521484 Z M53.7158203,20.3574219 L54.0087891,20.3574219 C54.311525,20.3574219 54.6020494,20.3110356 54.8803711,20.2182617 C55.1586928,20.1254878 55.4882793,19.9545911 55.8691406,19.7055664 C56.2500019,19.4565417 56.7578093,19.0781275 57.3925781,18.5703125 C57.7929708,18.2480453 58.0932607,17.9599622 58.293457,17.7060547 C58.4936533,17.4521472 58.6352535,17.2128917 58.7182617,16.9882812 C58.8012699,16.7636708 58.8427734,16.5292981 58.8427734,16.2851562 C58.8427734,16.0605458 58.7817389,15.870118 58.659668,15.7138672 C58.537597,15.5576164 58.3203141,15.4648439 58.0078125,15.4355469 L58.2421875,14.46875 L63.4570312,14.46875 L63.8232422,15.4208984 C63.2177704,16.0849643 62.4023489,16.8076133 61.3769531,17.5888672 L58.0810547,20.0644531 L59.9853516,25.4404297 C60.2099621,26.0849642 60.4052726,26.5683578 60.5712891,26.890625 C60.7373055,27.2128922 60.9423816,27.4667959 61.1865234,27.6523438 C61.4306653,27.8378916 61.787107,27.9648434 62.2558594,28.0332031 L62.0361328,29 L56.8212891,29 L54.8583984,22.671875 C54.7607417,22.3691391 54.6704106,22.1591803 54.5874023,22.0419922 C54.5043941,21.9248041 54.4018561,21.8442385 54.2797852,21.800293 C54.1577142,21.7563474 53.9941417,21.734375 53.7890625,21.734375 L53.4228516,21.734375 L51.8261719,29 L47.6220703,29 L51.328125,12.4472656 C51.5429698,11.4902296 51.6503906,10.7919944 51.6503906,10.3525391 C51.6503906,10.1376942 51.6284182,9.96923889 51.5844727,9.84716797 C51.5405271,9.72509705 51.4746098,9.62500039 51.3867188,9.546875 C51.2988277,9.46874961 51.1816414,9.40771506 51.0351562,9.36376953 C50.8886711,9.319824 50.6005881,9.26855498 50.1708984,9.20996094 L50.4052734,8.2578125 L54.7851562,8.0234375 L56.4404297,8.0234375 L53.7158203,20.3574219 Z M64.8046875,14.46875 L70.8837891,14.46875 L69.0527344,22.4375 C68.7890612,23.5703182 68.62793,24.3515604 68.5693359,24.78125 C68.5107419,25.2109396 68.4814453,25.5478503 68.4814453,25.7919922 C68.4814453,26.2509789 68.5717764,26.5830068 68.7524414,26.7880859 C68.9331064,26.9931651 69.199217,27.0957031 69.5507812,27.0957031 C69.7460947,27.0957031 69.9560536,27.0493169 70.1806641,26.956543 C70.4052746,26.8637691 70.6298817,26.7270517 70.8544922,26.5463867 C71.0791027,26.3657218 71.3525375,26.1142594 71.6748047,25.7919922 C71.9970719,25.469725 72.2802722,25.1254901 72.5244141,24.7592773 C72.7685559,24.3930646 72.9711906,24.0000021 73.1323242,23.5800781 C73.2934578,23.1601542 73.4423821,22.6279329 73.5791016,21.9833984 L75.1904297,14.46875 L79.3945312,14.46875 L77.0947266,24.8105469 C77.0458982,25.044923 76.9799809,25.3793924 76.8969727,25.8139648 C76.8139644,26.2485373 76.7724609,26.6123032 76.7724609,26.9052734 C76.7724609,27.3154317 76.8872059,27.5961906 77.1166992,27.7475586 C77.3461926,27.8989265 77.7050757,27.9941404 78.1933594,28.0332031 L77.9736328,29 L72.4511719,29 L73.2421875,25.9970703 L73.0664062,25.9384766 C72.1581986,27.0712947 71.2817425,27.9038059 70.4370117,28.4360352 C69.5922809,28.9682644 68.6328179,29.234375 67.5585938,29.234375 C66.5722607,29.234375 65.7910185,28.9536161 65.2148438,28.3920898 C64.638669,27.8305636 64.3505859,27.0566456 64.3505859,26.0703125 C64.3505859,25.4355437 64.4482412,24.6787153 64.6435547,23.7998047 L65.8447266,18.3798828 C65.9423833,17.9306618 66.0083006,17.5839856 66.0424805,17.3398438 C66.0766603,17.0957019 66.09375,16.8857431 66.09375,16.7099609 C66.09375,16.2802713 65.9863292,15.9775399 65.7714844,15.8017578 C65.5566396,15.6259757 65.175784,15.5039066 64.6289062,15.4355469 L64.8046875,14.46875 Z M87.4951172,16.9736328 L87.6855469,17.0322266 C88.4668008,16.0751905 89.2602499,15.3696312 90.065918,14.9155273 C90.8715861,14.4614235 91.772456,14.234375 92.7685547,14.234375 C93.7646534,14.234375 94.5507784,14.5151339 95.1269531,15.0766602 C95.7031279,15.6381864 95.9912109,16.4121044 95.9912109,17.3984375 C95.9912109,18.0332063 95.8935557,18.7900347 95.6982422,19.6689453 L94.4970703,25.0888672 C94.3994136,25.5380882 94.3334963,25.8847644 94.2993164,26.1289062 C94.2651365,26.3730481 94.2480469,26.5830069 94.2480469,26.7587891 C94.2480469,27.1982444 94.3579091,27.5058585 94.5776367,27.6816406 C94.7973644,27.8574228 95.1757786,27.9746091 95.7128906,28.0332031 L95.5371094,29 L89.4580078,29 L91.2890625,21.03125 C91.5527357,19.8984318 91.7138669,19.1171896 91.7724609,18.6875 C91.831055,18.2578104 91.8603516,17.9208997 91.8603516,17.6767578 C91.8603516,17.2373025 91.7675791,16.9101573 91.5820312,16.6953125 C91.3964834,16.4804677 91.1279314,16.3730469 90.7763672,16.3730469 C90.4638656,16.3730469 90.1220722,16.4902332 89.7509766,16.7246094 C89.379881,16.9589855 88.964846,17.3251928 88.5058594,17.8232422 C88.0468727,18.3212916 87.6806654,18.84863 87.4072266,19.4052734 C87.1337877,19.9619168 86.9140633,20.6552693 86.7480469,21.4853516 L85.1367188,29 L80.9326172,29 L84.6386719,12.4472656 C84.8535167,11.4902296 84.9609375,10.7919944 84.9609375,10.3525391 C84.9609375,10.1376942 84.9389651,9.96923889 84.8950195,9.84716797 C84.851074,9.72509705 84.7851567,9.62500039 84.6972656,9.546875 C84.6093746,9.46874961 84.4921882,9.40771506 84.3457031,9.36376953 C84.199218,9.319824 83.911135,9.26855498 83.4814453,9.20996094 L83.7158203,8.2578125 L88.0957031,8.0234375 L89.7509766,8.0234375 L87.4951172,16.9736328 Z M113.100586,29 L107.021484,29 L108.852539,21.03125 C109.116212,19.8984318 109.277343,19.1171896 109.335938,18.6875 C109.394532,18.2578104 109.423828,17.9208997 109.423828,17.6767578 C109.423828,17.2373025 109.331056,16.9101573 109.145508,16.6953125 C108.95996,16.4804677 108.691408,16.3730469 108.339844,16.3730469 C108.027342,16.3730469 107.685549,16.4902332 107.314453,16.7246094 C106.943358,16.9589855 106.528323,17.3251928 106.069336,17.8232422 C105.610349,18.3212916 105.244142,18.84863 104.970703,19.4052734 C104.697264,19.9619168 104.47754,20.6552693 104.311523,21.4853516 L102.700195,29 L98.4960938,29 L100.795898,18.6582031 C100.844727,18.423827 100.910644,18.0893576 100.993652,17.6547852 C101.076661,17.2202127 101.118164,16.8564468 101.118164,16.5634766 C101.118164,16.1533183 101.003419,15.8725594 100.773926,15.7211914 C100.544432,15.5698235 100.185549,15.4746096 99.6972656,15.4355469 L99.9169922,14.46875 L103.945312,14.3076172 L105.483398,14.3076172 L104.648438,17.4716797 L104.824219,17.5302734 C105.49805,16.7001912 106.123044,16.0483422 106.699219,15.574707 C107.275394,15.1010719 107.849118,14.7592784 108.42041,14.5493164 C108.991702,14.3393544 109.62402,14.234375 110.317383,14.234375 C111.323247,14.234375 112.114255,14.5151339 112.69043,15.0766602 C113.266604,15.6381864 113.554688,16.4121044 113.554688,17.3984375 C113.554688,18.0332063 113.457032,18.7900347 113.261719,19.6689453 L112.060547,25.0888672 C111.96289,25.5380882 111.896973,25.8847644 111.862793,26.1289062 C111.828613,26.3730481 111.811523,26.5830069 111.811523,26.7587891 C111.811523,27.1982444 111.921386,27.5058585 112.141113,27.6816406 C112.360841,27.8574228 112.739255,27.9746091 113.276367,28.0332031 L113.100586,29 Z M124.482422,8.62402344 L123.720703,12.2128906 L119.926758,12.2128906 L120.732422,8.62402344 L124.482422,8.62402344 Z M121.098633,25.0888672 C120.99121,25.5771509 120.922852,25.9384754 120.893555,26.1728516 C120.864258,26.4072277 120.849609,26.6025383 120.849609,26.7587891 C120.849609,27.178713 120.959472,27.4814444 121.179199,27.6669922 C121.398927,27.85254 121.777341,27.9746091 122.314453,28.0332031 L122.15332,29 L116.05957,29 L118.344727,18.7753906 C118.47168,18.1894502 118.55957,17.7329118 118.608398,17.4057617 C118.657227,17.0786116 118.681641,16.8027355 118.681641,16.578125 C118.681641,16.1972637 118.591309,15.9262703 118.410645,15.7651367 C118.22998,15.6040031 117.851565,15.4941409 117.275391,15.4355469 L117.495117,14.46875 L121.787109,14.3076172 L123.457031,14.3076172 L121.098633,25.0888672 Z"/>
    <path fill="#FFF" d="M4.72265625,51 L4.78710938,50.7070312 C4.54882693,49.0390542 4.35156328,48.0380876 4.1953125,47.7041016 C4.03906172,47.3701155 3.72461174,47.203125 3.25195312,47.203125 L3.13476562,47.203125 L2.61914062,49.5292969 C2.57617166,49.7246104 2.5546875,49.8925774 2.5546875,50.0332031 C2.5546875,50.3964862 2.72656078,50.5898436 3.0703125,50.6132812 L2.98828125,51 L0.03515625,51 L0.1171875,50.6132812 C0.339844863,50.5624997 0.503905723,50.4589852 0.609375,50.3027344 C0.714844277,50.1464836 0.804687129,49.8886737 0.87890625,49.5292969 L1.99804688,44.4785156 C2.04492211,44.2675771 2.06835938,44.0917976 2.06835938,43.9511719 C2.06835938,43.5996076 1.8984392,43.4121095 1.55859375,43.3886719 L1.64648438,43.0019531 L4.59960938,43.0019531 L4.51171875,43.3886719 C4.28906139,43.4355471 4.12597708,43.5332024 4.02246094,43.6816406 C3.91894479,43.8300789 3.82421918,44.0957012 3.73828125,44.4785156 L3.27539062,46.5644531 L3.375,46.5644531 C3.78125203,46.5644531 4.13867033,46.4306654 4.44726562,46.1630859 C4.75586092,45.8955065 5.05468605,45.4921902 5.34375,44.953125 C5.78125219,44.1484335 6.17382639,43.6064467 6.52148438,43.3271484 C6.86914236,43.0478502 7.33202836,42.9082031 7.91015625,42.9082031 C8.25390797,42.9082031 8.53320205,42.9531246 8.74804688,43.0429688 L8.42578125,44.4902344 L7.6875,44.4902344 C7.6875,44.1347638 7.5449233,43.9570312 7.25976562,43.9570312 C7.09960857,43.9570312 6.94433669,44.0341789 6.79394531,44.1884766 C6.64355394,44.3427742 6.41797025,44.6796849 6.1171875,45.1992188 C5.63671635,45.9804727 5.20312693,46.4726552 4.81640625,46.6757812 L4.79882813,46.734375 C5.15820492,46.8125004 5.42871003,46.9306633 5.61035156,47.0888672 C5.7919931,47.2470711 5.92285116,47.4404285 6.00292969,47.6689453 C6.08300821,47.8974621 6.17773383,48.2968721 6.28710938,48.8671875 C6.42382881,49.570316 6.54296824,50.0283192 6.64453125,50.2412109 C6.74609426,50.4541026 6.89843648,50.5781248 7.1015625,50.6132812 L7.01953125,51 L4.72265625,51 Z M9.16992188,51 L8.64257812,46.6523438 C8.6074217,46.3671861 8.56738304,46.153321 8.52246094,46.0107422 C8.47753884,45.8681633 8.41699257,45.7636722 8.34082031,45.6972656 C8.26464806,45.630859 8.14648518,45.5898438 7.98632812,45.5742188 L8.07421875,45.1875 L10.1367188,45.1875 L10.5410156,49.5644531 C11.1308623,48.7206989 11.5654283,48.0156278 11.8447266,47.4492188 C12.1240248,46.8828097 12.2636719,46.4121113 12.2636719,46.0371094 C12.2636719,45.8886711 12.228516,45.7763676 12.1582031,45.7001953 C12.0878903,45.6240231 11.9648446,45.5820313 11.7890625,45.5742188 L11.8710938,45.1875 L13.5234375,45.1875 L13.7285156,45.5742188 C13.5644523,46.0156272 13.3144548,46.5371064 12.9785156,47.1386719 C12.6425764,47.7402374 12.2236353,48.4081995 11.7216797,49.1425781 C11.2197241,49.8769568 10.6894559,50.6074182 10.1308594,51.3339844 C9.66210703,51.9433624 9.26953283,52.4023422 8.953125,52.7109375 C8.71484256,52.9453137 8.48828232,53.1249994 8.2734375,53.25 C8.10156164,53.3554693 7.91992283,53.4335935 7.72851562,53.484375 C7.53710842,53.5351565 7.3164075,53.5605469 7.06640625,53.5605469 C6.94921816,53.5605469 6.81347733,53.5478517 6.65917969,53.5224609 C6.50488204,53.4970702 6.36718811,53.4648439 6.24609375,53.4257812 L6.53320312,52.1074219 L7.15429688,52.1074219 C7.15820314,52.2714852 7.19140594,52.3925777 7.25390625,52.4707031 C7.31640656,52.5488285 7.40820252,52.5878906 7.52929688,52.5878906 C7.6933602,52.5878906 7.84081966,52.5605471 7.97167969,52.5058594 C8.10253972,52.4511716 8.23632744,52.3671881 8.37304688,52.2539062 C8.50976631,52.1406244 8.67187406,51.9794932 8.859375,51.7705078 C9.04687594,51.5615224 9.26171754,51.304689 9.50390625,51 L9.16992188,51 Z M16.921875,47.2382812 C17.2734393,46.9179671 17.5019526,46.6679696 17.6074219,46.4882812 C17.7128912,46.3085929 17.765625,46.1289071 17.765625,45.9492188 C17.765625,45.851562 17.7402346,45.768555 17.6894531,45.7001953 C17.6386716,45.6318356 17.5488288,45.5898438 17.4199219,45.5742188 L17.5078125,45.1875 L19.4003906,45.1875 L19.546875,45.5742188 C19.3749991,45.7578134 19.1425796,45.9941392 18.8496094,46.2832031 C18.5566392,46.5722671 18.2646499,46.8535143 17.9736328,47.1269531 C17.6826157,47.400392 17.4179699,47.6445302 17.1796875,47.859375 L17.9941406,49.6699219 C18.0761723,49.8417977 18.1503903,49.9882806 18.2167969,50.109375 C18.2832035,50.2304694 18.3437497,50.3212888 18.3984375,50.3818359 C18.4531253,50.4423831 18.5087888,50.4902342 18.5654297,50.5253906 C18.6220706,50.5605471 18.6992183,50.5898436 18.796875,50.6132812 L18.7089844,51 L16.7871094,51 L15.9609375,48.796875 C15.5312479,49.1757831 15.2539069,49.4619131 15.1289062,49.6552734 C15.0039056,49.8486338 14.9414062,50.0371085 14.9414062,50.2207031 C14.9414062,50.3261724 14.9658201,50.4140621 15.0146484,50.484375 C15.0634768,50.5546879 15.1542962,50.5976562 15.2871094,50.6132812 L15.1992188,51 L13.3066406,51 L13.1542969,50.6132812 C13.4042981,50.3476549 13.8037082,49.9521511 14.3525391,49.4267578 C14.9013699,48.9013646 15.3515607,48.4843765 15.703125,48.1757812 L15.09375,46.7929688 C14.9687494,46.5117173 14.869141,46.2998054 14.7949219,46.1572266 C14.7207028,46.0146477 14.6523441,45.9082035 14.5898438,45.8378906 C14.5273434,45.7675778 14.4658206,45.7138674 14.4052734,45.6767578 C14.3447263,45.6396483 14.2539069,45.6054689 14.1328125,45.5742188 L14.2207031,45.1875 L16.1660156,45.1875 L16.921875,47.2382812 Z M23.625,48.3867188 L21.8261719,48.3867188 L21.2929688,51 L19.6230469,51 L20.5429688,46.8632812 C20.6289067,46.4765606 20.671875,46.1972665 20.671875,46.0253906 C20.671875,45.8691398 20.6298832,45.7597659 20.5458984,45.6972656 C20.4619136,45.6347653 20.3144542,45.5937501 20.1035156,45.5742188 L20.1914062,45.1875 L21.8027344,45.1230469 L22.5,45.1230469 L21.984375,47.6308594 L23.7890625,47.6308594 L24.3222656,45.1875 L25.9863281,45.1875 L25.0664062,49.3242188 C24.9804683,49.7109394 24.9375,49.9902335 24.9375,50.1621094 C24.9375,50.3183602 24.9794918,50.4277341 25.0634766,50.4902344 C25.1474614,50.5527347 25.2949208,50.5937499 25.5058594,50.6132812 L25.4179688,51 L23.0625,51 L23.625,48.3867188 Z M27.1640625,45.1875 L29.5957031,45.1875 L28.8632812,48.375 C28.757812,48.8281273 28.6933595,49.1406241 28.6699219,49.3125 C28.6464843,49.4843759 28.6347656,49.6191401 28.6347656,49.7167969 C28.6347656,49.9003915 28.6708981,50.0332027 28.7431641,50.1152344 C28.81543,50.197266 28.9218743,50.2382812 29.0625,50.2382812 C29.1406254,50.2382812 29.2246089,50.2197267 29.3144531,50.1826172 C29.4042973,50.1455076 29.4941402,50.0908207 29.5839844,50.0185547 C29.6738286,49.9462887 29.7832025,49.8457038 29.9121094,49.7167969 C30.0410163,49.58789 30.1542964,49.450196 30.2519531,49.3037109 C30.3496099,49.1572258 30.4306637,49.0000008 30.4951172,48.8320312 C30.5595706,48.6640617 30.6191404,48.4511732 30.6738281,48.1933594 L31.3183594,45.1875 L33,45.1875 L32.0800781,49.3242188 C32.0605468,49.4179692 32.0341799,49.5517569 32.0009766,49.7255859 C31.9677733,49.8994149 31.9511719,50.0449213 31.9511719,50.1621094 C31.9511719,50.3261727 31.9970699,50.4384763 32.0888672,50.4990234 C32.1806645,50.5595706 32.3242178,50.5976562 32.5195312,50.6132812 L32.4316406,51 L30.2226562,51 L30.5390625,49.7988281 L30.46875,49.7753906 C30.1054669,50.2285179 29.7548845,50.5615224 29.4169922,50.7744141 C29.0790999,50.9873058 28.6953146,51.09375 28.265625,51.09375 C27.8710918,51.09375 27.5585949,50.9814464 27.328125,50.7568359 C27.0976551,50.5322254 26.9824219,50.2226582 26.9824219,49.828125 C26.9824219,49.5742175 27.021484,49.2714861 27.0996094,48.9199219 L27.5800781,46.7519531 C27.6191408,46.5722647 27.6455077,46.4335942 27.6591797,46.3359375 C27.6728516,46.2382808 27.6796875,46.1542972 27.6796875,46.0839844 C27.6796875,45.9121085 27.6367192,45.791016 27.5507812,45.7207031 C27.4648433,45.6503903 27.3125011,45.6015626 27.09375,45.5742188 L27.1640625,45.1875 Z M37.921875,46.8105469 C38.4843778,46.0644494 39.2206986,45.6914062 40.1308594,45.6914062 C40.7871127,45.6914062 41.2880842,45.8593733 41.6337891,46.1953125 C41.9794939,46.5312517 42.1523438,47.0117156 42.1523438,47.6367188 C42.1523438,48.6132861 41.8564483,49.4335904 41.2646484,50.0976562 C40.6728486,50.7617221 39.8281305,51.09375 38.7304688,51.09375 C37.2968678,51.09375 36.5800781,50.3086016 36.5800781,48.7382812 C36.5800781,47.5507753 36.8828095,46.4062555 37.4882812,45.3046875 C38.093753,44.2031195 39.2070231,43.5292981 40.828125,43.2832031 C41.2929711,43.208984 41.6601549,43.1289067 41.9296875,43.0429688 C42.1992201,42.9570308 42.3789058,42.8144541 42.46875,42.6152344 L43.0722656,42.6152344 C42.9238274,43.3066441 42.6796892,43.8261701 42.3398438,44.1738281 C41.9999983,44.5214861 41.382817,44.7499995 40.4882812,44.859375 C39.6406208,44.9648443 39.0341815,45.1621079 38.6689453,45.4511719 C38.3037091,45.7402358 38.0253916,46.1777314 37.8339844,46.7636719 L37.921875,46.8105469 Z M38.9003906,50.484375 C39.3964869,50.484375 39.778319,50.141605 40.0458984,49.4560547 C40.3134779,48.7705044 40.4472656,48.087894 40.4472656,47.4082031 C40.4472656,46.7167934 40.1972681,46.3710938 39.6972656,46.3710938 C39.1972631,46.3710938 38.8144545,46.7080044 38.5488281,47.3818359 C38.2832018,48.0556674 38.1503906,48.7304654 38.1503906,49.40625 C38.1503906,50.1250036 38.4003881,50.484375 38.9003906,50.484375 Z M47.90625,49.78125 C47.5117168,50.2265647 47.0869163,50.5566396 46.6318359,50.7714844 C46.1767555,50.9863292 45.6835964,51.09375 45.1523438,51.09375 C44.6953102,51.09375 44.3066422,51.0136727 43.9863281,50.8535156 C43.666014,50.6933586 43.4248055,50.4560563 43.2626953,50.1416016 C43.1005851,49.8271469 43.0195312,49.4511741 43.0195312,49.0136719 C43.0195312,48.8105459 43.0468747,48.5507828 43.1015625,48.234375 C43.1757816,47.8046854 43.2890617,47.4218767 43.4414062,47.0859375 C43.6328135,46.6718729 43.882811,46.3164077 44.1914062,46.0195312 C44.5000015,45.7226548 44.8623026,45.4941414 45.2783203,45.3339844 C45.694338,45.1738273 46.1503881,45.09375 46.6464844,45.09375 C47.2324248,45.09375 47.6777329,45.2001942 47.9824219,45.4130859 C48.2871109,45.6259776 48.4394531,45.9511697 48.4394531,46.3886719 C48.4394531,46.6855484 48.3798834,46.9472645 48.2607422,47.1738281 C48.141601,47.4003918 47.9433608,47.6054678 47.6660156,47.7890625 C47.3886705,47.9726572 46.9970728,48.1210932 46.4912109,48.234375 C45.985349,48.3476568 45.3750036,48.4121093 44.6601562,48.4277344 C44.6093747,48.6582043 44.5839844,48.8964831 44.5839844,49.1425781 C44.5839844,49.2871101 44.5976561,49.424804 44.625,49.5556641 C44.6523439,49.6865241 44.7011715,49.8027339 44.7714844,49.9042969 C44.8417972,50.0058599 44.9355463,50.0869138 45.0527344,50.1474609 C45.1699225,50.2080081 45.3203116,50.2382812 45.5039062,50.2382812 C45.847658,50.2382812 46.1582017,50.168946 46.4355469,50.0302734 C46.712892,49.8916009 47.0390606,49.644533 47.4140625,49.2890625 L47.90625,49.78125 Z M44.8007812,47.8125 C45.5195348,47.7929687 46.069334,47.6552747 46.4501953,47.3994141 C46.8310566,47.1435534 47.0214844,46.7812523 47.0214844,46.3125 C47.0214844,46.1132803 46.9755864,45.9619146 46.8837891,45.8583984 C46.7919917,45.7548823 46.6640633,45.703125 46.5,45.703125 C46.1367169,45.703125 45.8095718,45.8828107 45.5185547,46.2421875 C45.2275376,46.6015643 44.9882822,47.1249966 44.8007812,47.8125 Z M49.8164062,49.4589844 C49.8203125,50.1113314 50.1503873,50.4375 50.8066406,50.4375 C51.1621112,50.4375 51.4541004,50.326173 51.6826172,50.1035156 C51.911134,49.8808583 52.0253906,49.5566428 52.0253906,49.1308594 C52.0253906,48.8261704 51.9091808,48.6191412 51.6767578,48.5097656 C51.4443348,48.4003901 51.0957054,48.3457031 50.6308594,48.3457031 L50.3027344,48.3457031 L50.4667969,47.6074219 L50.7304688,47.6074219 C51.9531311,47.6074219 52.5644531,47.2714877 52.5644531,46.5996094 C52.5644531,46.376952 52.4853524,46.1933601 52.3271484,46.0488281 C52.1689445,45.9042962 51.9492202,45.8320312 51.6679688,45.8320312 C51.0976534,45.8320312 50.4863314,46.0996067 49.8339844,46.6347656 L49.3710938,46.1308594 C50.1992229,45.4394497 51.10937,45.09375 52.1015625,45.09375 C52.7968785,45.09375 53.334959,45.2167956 53.7158203,45.4628906 C54.0966816,45.7089856 54.2871094,46.0546853 54.2871094,46.5 C54.2871094,46.8710956 54.1484389,47.184569 53.8710938,47.4404297 C53.5937486,47.6962903 53.2207055,47.8691402 52.7519531,47.9589844 L52.7519531,48.0234375 C53.4433628,48.2109384 53.7890625,48.5976533 53.7890625,49.1835938 C53.7890625,49.7109401 53.530276,50.1611309 53.0126953,50.5341797 C52.4951146,50.9072284 51.7832077,51.09375 50.8769531,51.09375 C49.9394484,51.09375 49.1543,50.9882823 48.5214844,50.7773438 L48.8144531,49.4589844 L49.8164062,49.4589844 Z M60.796875,47.2382812 C61.1484393,46.9179671 61.3769526,46.6679696 61.4824219,46.4882812 C61.5878912,46.3085929 61.640625,46.1289071 61.640625,45.9492188 C61.640625,45.851562 61.6152346,45.768555 61.5644531,45.7001953 C61.5136716,45.6318356 61.4238288,45.5898438 61.2949219,45.5742188 L61.3828125,45.1875 L63.2753906,45.1875 L63.421875,45.5742188 C63.2499991,45.7578134 63.0175796,45.9941392 62.7246094,46.2832031 C62.4316392,46.5722671 62.1396499,46.8535143 61.8486328,47.1269531 C61.5576157,47.400392 61.2929699,47.6445302 61.0546875,47.859375 L61.8691406,49.6699219 C61.9511723,49.8417977 62.0253903,49.9882806 62.0917969,50.109375 C62.1582035,50.2304694 62.2187497,50.3212888 62.2734375,50.3818359 C62.3281253,50.4423831 62.3837888,50.4902342 62.4404297,50.5253906 C62.4970706,50.5605471 62.5742183,50.5898436 62.671875,50.6132812 L62.5839844,51 L60.6621094,51 L59.8359375,48.796875 C59.4062479,49.1757831 59.1289069,49.4619131 59.0039062,49.6552734 C58.8789056,49.8486338 58.8164062,50.0371085 58.8164062,50.2207031 C58.8164062,50.3261724 58.8408201,50.4140621 58.8896484,50.484375 C58.9384768,50.5546879 59.0292962,50.5976562 59.1621094,50.6132812 L59.0742188,51 L57.1816406,51 L57.0292969,50.6132812 C57.2792981,50.3476549 57.6787082,49.9521511 58.2275391,49.4267578 C58.7763699,48.9013646 59.2265607,48.4843765 59.578125,48.1757812 L58.96875,46.7929688 C58.8437494,46.5117173 58.744141,46.2998054 58.6699219,46.1572266 C58.5957028,46.0146477 58.5273441,45.9082035 58.4648438,45.8378906 C58.4023434,45.7675778 58.3408206,45.7138674 58.2802734,45.6767578 C58.2197263,45.6396483 58.1289069,45.6054689 58.0078125,45.5742188 L58.0957031,45.1875 L60.0410156,45.1875 L60.796875,47.2382812 Z M68.0566406,45.9667969 C67.7050764,45.9667969 67.4042981,46.1406233 67.1542969,46.4882812 C66.9042956,46.8359392 66.5605491,47.6015566 66.1230469,48.7851562 C65.7792952,49.7031296 65.4384783,50.3173813 65.1005859,50.6279297 C64.7626936,50.9384781 64.3476587,51.09375 63.8554688,51.09375 C63.4648418,51.09375 63.1250014,51.0507817 62.8359375,50.9648438 L63.1875,49.4648438 L63.7558594,49.4648438 C63.7558594,49.9062522 63.8652333,50.1269531 64.0839844,50.1269531 C64.5253928,50.1269531 64.9667947,49.5449277 65.4082031,48.3808594 C65.9707059,46.9238208 66.4472637,46.0273454 66.8378906,45.6914062 C67.2285176,45.3554671 67.6718725,45.1875 68.1679688,45.1875 L70.1367188,45.1875 L69.2167969,49.3242188 C69.1308589,49.7109394 69.0878906,49.9902335 69.0878906,50.1621094 C69.0878906,50.3183602 69.1298824,50.4277341 69.2138672,50.4902344 C69.297852,50.5527347 69.4453114,50.5937499 69.65625,50.6132812 L69.5683594,51 L67.2128906,51 L68.2910156,45.9667969 L68.0566406,45.9667969 Z M73.078125,51.09375 C72.6484354,51.09375 72.2705094,51.0166023 71.9443359,50.8623047 C71.6181624,50.708007 71.3623056,50.4736344 71.1767578,50.1591797 C70.99121,49.844725 70.8984375,49.4609398 70.8984375,49.0078125 C70.8984375,48.8359366 70.9101561,48.6445323 70.9335938,48.4335938 C70.9648439,48.1679674 71.0195309,47.8964858 71.0976562,47.6191406 C71.1875004,47.2988265 71.3007806,47.0136731 71.4375,46.7636719 C71.5859382,46.4824205 71.7578115,46.2392588 71.953125,46.0341797 C72.1484385,45.8291005 72.3603504,45.6591804 72.5888672,45.5244141 C72.817384,45.3896478 73.0664049,45.2871097 73.3359375,45.2167969 C73.6562516,45.1347652 73.9921857,45.09375 74.34375,45.09375 C74.8281274,45.09375 75.2343734,45.1826163 75.5625,45.3603516 C75.8906266,45.5380868 76.1337883,45.7851547 76.2919922,46.1015625 C76.4501961,46.4179703 76.5292969,46.7851542 76.5292969,47.203125 C76.5292969,47.7187526 76.4433602,48.2363255 76.2714844,48.7558594 C76.0996085,49.2753932 75.8623062,49.7109357 75.5595703,50.0625 C75.2568344,50.4140643 74.8984396,50.6738273 74.484375,50.8417969 C74.0703104,51.0097665 73.6015651,51.09375 73.078125,51.09375 Z M72.4746094,49.3886719 C72.4746094,49.7558612 72.5341791,50.0302725 72.6533203,50.2119141 C72.7724615,50.3935556 72.9609362,50.484375 73.21875,50.484375 C73.363282,50.484375 73.5009759,50.4541019 73.6318359,50.3935547 C73.762696,50.3330075 73.8916009,50.2294929 74.0185547,50.0830078 C74.1455084,49.9365227 74.2597651,49.7509777 74.3613281,49.5263672 C74.4628911,49.3017567 74.5595699,49.0244157 74.6513672,48.6943359 C74.7431645,48.3642562 74.8144529,48.0410172 74.8652344,47.7246094 C74.9160159,47.4082015 74.9414062,47.1132826 74.9414062,46.8398438 C74.9414062,46.4492168 74.8818365,46.1621103 74.7626953,45.9785156 C74.6435541,45.794921 74.4589856,45.703125 74.2089844,45.703125 C73.8808577,45.703125 73.5966809,45.8623031 73.3564453,46.1806641 C73.1162097,46.499025 72.9091806,46.9912076 72.7353516,47.6572266 C72.5615226,48.3232455 72.4746094,48.9003882 72.4746094,49.3886719 Z M83.1445312,51 L80.7128906,51 L81.4453125,47.8125 C81.5507818,47.3593727 81.6152343,47.0468759 81.6386719,46.875 C81.6621095,46.7031241 81.6738281,46.5683599 81.6738281,46.4707031 C81.6738281,46.294921 81.6367191,46.1640629 81.5625,46.078125 C81.4882809,45.9921871 81.3808601,45.9492188 81.2402344,45.9492188 C81.1152338,45.9492188 80.9785164,45.9960933 80.8300781,46.0898438 C80.6816399,46.1835942 80.5156259,46.3300771 80.3320312,46.5292969 C80.1484366,46.7285166 80.0019537,46.939452 79.8925781,47.1621094 C79.7832026,47.3847667 79.6953128,47.6621077 79.6289062,47.9941406 L78.984375,51 L77.3027344,51 L78.2226562,46.8632812 C78.2421876,46.7695308 78.2685545,46.6357431 78.3017578,46.4619141 C78.3349611,46.2880851 78.3515625,46.1425787 78.3515625,46.0253906 C78.3515625,45.8613273 78.3056645,45.7490237 78.2138672,45.6884766 C78.1220699,45.6279294 77.9785166,45.5898438 77.7832031,45.5742188 L77.8710938,45.1875 L79.4824219,45.1230469 L80.0976562,45.1230469 L79.7636719,46.3886719 L79.8339844,46.4121094 C80.103517,46.0800765 80.3535145,45.8193369 80.5839844,45.6298828 C80.8144543,45.4404287 81.0439442,45.3037114 81.2724609,45.2197266 C81.5009777,45.1357418 81.7539049,45.09375 82.03125,45.09375 C82.4335958,45.09375 82.7499988,45.2060536 82.9804688,45.4306641 C83.2109387,45.6552746 83.3261719,45.9648418 83.3261719,46.359375 C83.3261719,46.6132825 83.2871098,46.9160139 83.2089844,47.2675781 L82.7285156,49.4355469 C82.6894529,49.6152353 82.663086,49.7539058 82.6494141,49.8515625 C82.6357421,49.9492192 82.6289062,50.0332028 82.6289062,50.1035156 C82.6289062,50.2792978 82.6728511,50.4023434 82.7607422,50.4726562 C82.8486333,50.5429691 82.9999989,50.5898436 83.2148438,50.6132812 L83.1445312,51 Z M86.5839844,51.09375 C86.1542947,51.09375 85.7763688,51.0166023 85.4501953,50.8623047 C85.1240218,50.708007 84.868165,50.4736344 84.6826172,50.1591797 C84.4970694,49.844725 84.4042969,49.4609398 84.4042969,49.0078125 C84.4042969,48.8359366 84.4160155,48.6445323 84.4394531,48.4335938 C84.4707033,48.1679674 84.5253902,47.8964858 84.6035156,47.6191406 C84.6933598,47.2988265 84.8066399,47.0136731 84.9433594,46.7636719 C85.0917976,46.4824205 85.2636709,46.2392588 85.4589844,46.0341797 C85.6542979,45.8291005 85.8662098,45.6591804 86.0947266,45.5244141 C86.3232433,45.3896478 86.5722643,45.2871097 86.8417969,45.2167969 C87.162111,45.1347652 87.4980451,45.09375 87.8496094,45.09375 C88.3339868,45.09375 88.7402327,45.1826163 89.0683594,45.3603516 C89.396486,45.5380868 89.6396476,45.7851547 89.7978516,46.1015625 C89.9560555,46.4179703 90.0351562,46.7851542 90.0351562,47.203125 C90.0351562,47.7187526 89.9492196,48.2363255 89.7773438,48.7558594 C89.6054679,49.2753932 89.3681656,49.7109357 89.0654297,50.0625 C88.7626938,50.4140643 88.4042989,50.6738273 87.9902344,50.8417969 C87.5761698,51.0097665 87.1074245,51.09375 86.5839844,51.09375 Z M85.9804688,49.3886719 C85.9804688,49.7558612 86.0400385,50.0302725 86.1591797,50.2119141 C86.2783209,50.3935556 86.4667956,50.484375 86.7246094,50.484375 C86.8691413,50.484375 87.0068353,50.4541019 87.1376953,50.3935547 C87.2685553,50.3330075 87.3974603,50.2294929 87.5244141,50.0830078 C87.6513678,49.9365227 87.7656245,49.7509777 87.8671875,49.5263672 C87.9687505,49.3017567 88.0654292,49.0244157 88.1572266,48.6943359 C88.2490239,48.3642562 88.3203122,48.0410172 88.3710938,47.7246094 C88.4218753,47.4082015 88.4472656,47.1132826 88.4472656,46.8398438 C88.4472656,46.4492168 88.3876959,46.1621103 88.2685547,45.9785156 C88.1494135,45.794921 87.964845,45.703125 87.7148438,45.703125 C87.3867171,45.703125 87.1025403,45.8623031 86.8623047,46.1806641 C86.6220691,46.499025 86.4150399,46.9912076 86.2412109,47.6572266 C86.0673819,48.3232455 85.9804688,48.9003882 85.9804688,49.3886719 Z M96.8085938,46.3066406 C97.1406267,45.8847635 97.4726546,45.5771494 97.8046875,45.3837891 C98.1367204,45.1904287 98.5097636,45.09375 98.9238281,45.09375 C99.3261739,45.09375 99.6396473,45.2060536 99.8642578,45.4306641 C100.088868,45.6552746 100.201172,45.9648418 100.201172,46.359375 C100.201172,46.6132825 100.16211,46.9160139 100.083984,47.2675781 L99.6035156,49.4355469 C99.5644529,49.6152353 99.538086,49.7539058 99.5244141,49.8515625 C99.5107421,49.9492192 99.5039062,50.0332028 99.5039062,50.1035156 C99.5039062,50.2792978 99.5478511,50.4023434 99.6357422,50.4726562 C99.7236333,50.5429691 99.8749989,50.5898436 100.089844,50.6132812 L100.019531,51 L97.5878906,51 L98.3964844,47.4785156 C98.4394533,47.294921 98.4716796,47.1445318 98.4931641,47.0273438 C98.5146485,46.9101557 98.5302734,46.8085942 98.5400391,46.7226562 C98.5498047,46.6367183 98.5546875,46.5585941 98.5546875,46.4882812 C98.5546875,46.3124991 98.518555,46.1787114 98.4462891,46.0869141 C98.3740231,45.9951167 98.2656257,45.9492188 98.1210938,45.9492188 C98.0039057,45.9492188 97.8691414,45.9990229 97.7167969,46.0986328 C97.5644524,46.1982427 97.399415,46.3457021 97.2216797,46.5410156 C97.0439444,46.7363291 96.9003912,46.9443348 96.7910156,47.1650391 C96.6816401,47.3857433 96.5937503,47.6621077 96.5273438,47.9941406 L95.8828125,51 L94.1953125,51 L95.0390625,47.3261719 C95.0781252,47.1699211 95.1054687,47.0449223 95.1210938,46.9511719 C95.1367188,46.8574214 95.1474609,46.7773441 95.1533203,46.7109375 C95.1591797,46.6445309 95.1621094,46.5839846 95.1621094,46.5292969 C95.1621094,46.3261709 95.1269535,46.1787114 95.0566406,46.0869141 C94.9863278,45.9951167 94.8750008,45.9492188 94.7226562,45.9492188 C94.5390616,45.9492188 94.3193372,46.0683582 94.0634766,46.3066406 C93.8076159,46.5449231 93.6083992,46.7880847 93.4658203,47.0361328 C93.3232415,47.2841809 93.212891,47.6035137 93.1347656,47.9941406 L92.4902344,51 L90.8085938,51 L91.7285156,46.8632812 C91.748047,46.7695308 91.7744139,46.6357431 91.8076172,46.4619141 C91.8408205,46.2880851 91.8574219,46.1425787 91.8574219,46.0253906 C91.8574219,45.8613273 91.8115239,45.7490237 91.7197266,45.6884766 C91.6279292,45.6279294 91.484376,45.5898438 91.2890625,45.5742188 L91.3769531,45.1875 L92.9882812,45.1230469 L93.6035156,45.1230469 L93.2695312,46.3886719 L93.3398438,46.4121094 C93.6132826,46.0761702 93.8642567,45.8134775 94.0927734,45.6240234 C94.3212902,45.4345694 94.548827,45.2988285 94.7753906,45.2167969 C95.0019543,45.1347652 95.2539049,45.09375 95.53125,45.09375 C95.921877,45.09375 96.2294911,45.2011708 96.4541016,45.4160156 C96.6787121,45.6308604 96.7968749,45.9277325 96.8085938,46.3066406 Z M104.871094,43.0019531 L103.207031,48.3867188 L102.210938,48.3867188 L102.949219,43.0019531 L104.871094,43.0019531 Z M103.294922,49.2304688 L102.896484,51 L101.402344,51 L101.794922,49.2304688 L103.294922,49.2304688 Z"/>
  </g>
</svg>
