<svg xmlns="http://www.w3.org/2000/svg" width="33" height="34" viewBox="0 0 33 34">
  <g fill="none">
    <g transform="translate(0 .266)">
      <path fill="#FFC500" d="M8.82112665,4.59239063 C8.14664558,4.15025781 7.33866925,3.99367188 6.54611695,4.1511875 C4.90834167,4.47657813 3.84448821,6.05485547 4.17445454,7.66958984 C4.33415042,8.45092578 4.79357077,9.12468359 5.46805184,9.56655078 C5.97158894,9.89652344 6.54934993,10.0674531 7.13963874,10.0674531 C7.34015104,10.0674531 7.54214512,10.0476641 7.74299418,10.0078203 C8.53554648,9.85037109 9.2188509,9.39741406 9.66715787,8.73242188 C10.1154648,8.06736328 10.2744198,7.27082031 10.1146566,6.48941797 C9.95502806,5.70808203 9.49560772,5.03432422 8.82112665,4.59239063 Z M7.95165629,7.60823047 C7.80792326,7.82146094 7.58936014,7.96669141 7.33610981,8.01696094 C7.08299418,8.06709766 6.82449025,8.01696094 6.60814981,7.87511719 C6.39187672,7.73333984 6.24464129,7.51791797 6.19365445,7.26829688 C6.08797632,6.75132422 6.42858455,6.24597266 6.95293397,6.14178125 C7.01692009,6.12909766 7.08124298,6.12285547 7.14516175,6.12285547 C7.33408919,6.12285547 7.51931217,6.17777344 7.68082661,6.283625 C7.8970997,6.42540234 8.04433514,6.64082422 8.09532197,6.89044531 C8.14644351,7.14013281 8.09545668,7.39506641 7.95165629,7.60823047 Z"/>
      <path fill="#323232" d="M14.1292805,5.6918125 C13.3532299,1.89463672 9.58842127,-0.572421875 5.73726503,0.193109375 C1.88590673,0.958175781 -0.616085315,4.66988672 0.159897949,8.46699609 C0.535328095,10.3038594 1.61581794,11.8881133 3.20240433,12.9276367 C4.38695581,13.703793 5.74588631,14.1060156 7.13404837,14.1060156 C7.60518828,14.1059492 8.07983059,14.0596641 8.55198081,13.965832 C12.4033391,13.2006328 14.9052638,9.48898828 14.1292805,5.6918125 Z M8.14516379,11.9750391 C6.82125727,12.2378086 5.47094806,11.9756367 4.34256965,11.2362695 C3.2142586,10.4969023 2.44595367,9.37105078 2.17923257,8.06590234 C1.91251148,6.76075391 2.17855904,5.429375 2.92847638,4.31680469 C3.67839371,3.20430078 4.82037759,2.44687109 6.1441494,2.18383594 C6.48051434,2.11703125 6.81559955,2.08495703 7.14623941,2.08495703 C9.50719257,2.08495703 11.6261435,3.72519141 12.1100806,6.09297266 C12.6617757,8.79238672 10.8830289,11.4311055 8.14516379,11.9750391 Z"/>
    </g>
    <g transform="translate(17.916 19.59)">
      <path fill="#FFC500" d="M8.80981121,4.57632031 C8.13526278,4.1341875 7.32735381,3.97753516 6.53480151,4.13511719 L6.53486886,4.13505078 C5.74231656,4.2925 5.05894479,4.74545703 4.61063782,5.41044922 C4.16233085,6.07544141 4.00337585,6.87211719 4.1631391,7.65345313 C4.32283498,8.43485547 4.78225533,9.10854688 5.4567364,9.55054688 C5.9602735,9.88051953 6.53803449,10.0513828 7.1283233,10.0513828 C7.32890295,10.0513828 7.53082968,10.0315938 7.73167874,9.99175 C9.36945403,9.66635938 10.4333075,8.08808203 10.1033412,6.47334766 C9.94377998,5.69194531 9.48435963,5.0181875 8.80981121,4.57632031 Z M7.32492907,8.00095703 C7.07194816,8.05116016 6.81330952,8.00095703 6.59696908,7.85911328 C6.38069599,7.71733594 6.23346056,7.50191406 6.18247372,7.25222656 C6.13148689,7.00253906 6.18247372,6.74767187 6.32627411,6.53444141 C6.47000714,6.32121094 6.68857026,6.17604687 6.94175324,6.12577734 L6.94182059,6.12577734 C7.00580671,6.11309375 7.07012961,6.10685156 7.13404837,6.10685156 C7.32290846,6.10685156 7.50813144,6.16170312 7.66971324,6.26762109 C7.88598633,6.40939844 8.03322176,6.62482031 8.08420859,6.87444141 C8.18988672,7.39141406 7.8492785,7.89676563 7.32492907,8.00095703 Z"/>
      <path fill="#323232" d="M14.1180998,5.67580859 C13.7426697,3.83894531 12.6621798,2.25469141 11.0755934,1.21516797 C9.48900704,0.175578125 7.58936014,-0.193175781 5.72601694,0.177039063 C3.86294316,0.547121094 2.25615063,1.61247656 1.20172671,3.17667578 C0.147302786,4.74094141 -0.226578222,6.6140625 0.14878457,8.45099219 C0.829529544,11.7818633 3.80986835,14.0889492 7.13115216,14.0889492 C7.59609552,14.0889492 8.06784162,14.0437266 8.54080008,13.9497617 C10.4039412,13.5796133 12.0107337,12.5142578 13.0651577,10.9500586 C14.1195142,9.38579297 14.49353,7.51267188 14.1180998,5.67580859 Z M11.3495887,9.826 C10.5996714,10.9385703 9.45768752,11.696 8.13391571,11.9590352 C7.79755077,12.0258398 7.46246556,12.0579805 7.1318257,12.0579141 C4.77087254,12.0577148 2.65192162,10.4176797 2.16798449,8.04989844 C1.90133075,6.74475 2.16744566,5.41330469 2.91729564,4.30080078 C3.66714563,3.18829688 4.8091295,2.43080078 6.13290132,2.16783203 C6.46825594,2.10122656 6.805025,2.06828906 7.13970609,2.06828906 C8.12637208,2.06828906 9.09289928,2.35443359 9.93549546,2.90653516 C11.0638065,3.64590234 11.8321114,4.77175391 12.0988325,6.07690234 C12.3655536,7.38211719 12.0995061,8.71349609 11.3495887,9.826 Z"/>
    </g>
    <path fill="#323232" d="M27.2143749,0.50628125 C25.8011573,-0.419753906 23.887164,-0.039578125 22.9479151,1.35389062 L4.12003266,29.2853555 C3.18085111,30.6787578 3.56651903,32.5658242 4.97973671,33.4919258 C5.49048066,33.8265469 6.07706501,34 6.67664864,34 C6.88066333,34 7.08629452,33.9798789 7.29078069,33.9393711 C8.09666905,33.779332 8.79108685,33.3194023 9.24606184,32.6443828 L28.074079,4.71285156 C29.0133952,3.31944922 28.6277273,1.43251562 27.2143749,0.50628125 Z M26.3586448,3.58879297 L7.53062762,31.5203242 C7.3801592,31.743582 7.15055006,31.8956523 6.88409838,31.9485117 C6.88403102,31.9485781 6.88403102,31.9485781 6.88403102,31.9485781 C6.61751199,32.0014375 6.34614348,31.9489102 6.11976732,31.8006914 C5.65239922,31.4943594 5.52489846,30.8702734 5.83546688,30.4094805 L24.663484,2.47801562 C24.8592142,2.18762109 25.182984,2.03030469 25.5126809,2.03030469 C25.7060537,2.03030469 25.9015144,2.08449219 26.0743443,2.19771484 C26.5416451,2.50398047 26.6692132,3.128 26.3586448,3.58879297 Z"/>
  </g>
</svg>
