<svg xmlns="http://www.w3.org/2000/svg" width="28" height="28" viewBox="0 0 28 28">
  <g fill="none" fill-rule="evenodd">
    <circle cx="14" cy="14" r="14" fill="#FFC500"/>
    <path stroke="#FFF" stroke-linecap="round" stroke-linejoin="round" d="M12.3809524,8.952 L12.3809524,10.752 C12.3823674,11.0898871 12.236744,11.412695 11.9798577,11.6411189 C11.7229715,11.8695428 11.3786301,11.9824129 11.0314286,11.952 C9.1265162,11.7513845 7.29671377,11.1204867 5.68904762,10.11 C4.19332217,9.18879831 2.92520809,7.95970313 1.9747619,6.51 C0.928557845,4.94472239 0.277483763,3.16259674 0.0742857143,1.308 C0.0430072254,0.972523399 0.158644576,0.639751454 0.392950244,0.390972633 C0.627255913,0.142193813 0.958653578,0.000317214147 1.30619048,3.51615942e-12 L3.16333333,3.51615942e-12 C3.78477299,-0.00592809429 4.3144529,0.435580489 4.40142857,1.032 C4.47981425,1.60803987 4.625183,2.17363613 4.8347619,2.718 C5.00483595,3.15652502 4.89605695,3.65088376 4.55619048,3.984 L3.77,4.746 C4.65124863,6.2481275 5.93447163,7.49186672 7.48428571,8.346 L8.27047619,7.584 C8.61416755,7.25459096 9.12422022,7.149159 9.57666667,7.314 C10.1383119,7.51713033 10.7218636,7.65802619 11.3161905,7.734 C11.9386817,7.81911619 12.3965462,8.34287555 12.3809524,8.952 Z" transform="translate(8 8)"/>
  </g>
</svg>
