<svg xmlns="http://www.w3.org/2000/svg" width="36" height="41" viewBox="0 0 36 41">
  <g fill="none" fill-rule="evenodd">
    <path fill="#323232" fill-rule="nonzero" d="M34.5999862,7.05064157 L21.9937578,0.283171687 C20.79791,-0.358996988 19.1536194,0.134978916 18.5058685,1.32052108 L11.131474,14.9048584 L2.16261592,14.9048584 C1.01659516,14.9048584 0.119709343,15.7940151 0.119709343,16.9301596 L0.119709343,20.4867861 L0.119709343,38.9120873 C0.119709343,40.0482319 1.01659516,40.9373886 2.16261592,40.9373886 L30.8131349,40.9373886 C31.9591557,40.9373886 32.8560415,40.0482319 32.8560415,38.9120873 L32.8560415,33.774738 L33.7031003,33.774738 C34.1515433,33.774738 34.5003322,33.4289548 34.5003322,32.9843765 L34.5003322,27.1060633 C34.5003322,26.6614849 34.1515433,26.3157018 33.7031003,26.3157018 L32.8560415,26.3157018 L32.8560415,20.5361837 C32.8560415,19.5976295 32.1584637,18.7578705 31.2615779,18.5602801 L35.6463529,10.5084729 C36.2941038,9.27353313 35.8456609,7.74220783 34.5999862,7.05064157 Z M25.631128,4.03738855 L17.7584637,18.5108825 L15.5162491,18.5108825 L23.9370104,3.14823193 L25.631128,4.03738855 Z M19.9508512,2.06148494 C20.1999862,1.61690663 20.79791,1.41931627 21.2463529,1.66630422 L22.4920277,2.35787048 L13.7224775,18.5108825 L10.9819931,18.5108825 L19.9508512,2.06148494 Z M1.66434602,16.880762 C1.66434602,16.7325693 1.86365398,16.4855813 2.11278893,16.4855813 L10.2345882,16.4855813 L9.13839446,18.4614849 L2.11278893,18.4614849 C1.96330796,18.4614849 1.81382699,18.4614849 1.66434602,18.5108825 L1.66434602,16.880762 Z M31.2117509,38.9120873 C31.2117509,39.1590753 31.0124429,39.3566657 30.763308,39.3566657 L2.11278893,39.3566657 C1.86365398,39.3566657 1.66434602,39.1590753 1.66434602,38.9120873 L1.66434602,20.5361837 C1.66434602,20.2891958 1.86365398,20.0916054 2.11278893,20.0916054 L9.63666436,20.0916054 L12.8255917,20.0916054 L18.6553495,20.0916054 L29.8664221,20.0916054 L30.713481,20.0916054 C30.9626159,20.0916054 31.1619239,20.2891958 31.1619239,20.5361837 L31.1619239,26.3157018 L28.1224775,26.3157018 C26.7771488,26.3157018 25.730782,27.4024488 25.730782,28.6867861 L25.730782,31.4036536 C25.730782,32.7373886 26.8269758,33.774738 28.1224775,33.774738 L31.2117509,33.774738 L31.2117509,38.9120873 Z M32.8062145,27.8964247 L32.8560415,27.8964247 L32.8560415,32.1940151 L32.8062145,32.1940151 L28.1224775,32.1940151 C27.6740346,32.1940151 27.3252457,31.8482319 27.3252457,31.4036536 L27.3252457,28.6867861 C27.3252457,28.2422078 27.6740346,27.8964247 28.1224775,27.8964247 L32.8062145,27.8964247 Z M34.2013702,9.71811145 L29.4179792,18.5108825 L19.5522353,18.5108825 L27.0262837,4.82775 L33.8027543,8.48317169 C34.3010242,8.68076205 34.4505052,9.27353313 34.2013702,9.71811145 Z"/>
    <ellipse cx="22.05" cy="29.859" fill="#FFC500" stroke="#FFC500" stroke-width=".9" rx="1.35" ry="1.337"/>
    <path fill="#FFC500" fill-rule="nonzero" d="M31.1619239,8.97714759 L30.763308,8.77955723 C29.7667682,8.23618373 28.4214394,8.63136446 27.8733426,9.61931627 L27.3750727,10.5578705 C27.1259377,11.0518464 27.0262837,11.6446175 27.2255917,12.187991 C27.3750727,12.7313645 27.7736886,13.1759428 28.2719585,13.4229307 L28.6705744,13.6205211 C28.9695363,13.7687139 29.3183253,13.867509 29.6671142,13.867509 C30.464346,13.867509 31.1619239,13.4229307 31.5605398,12.780762 L32.0588097,11.8422078 C32.5570796,10.8048584 32.1584637,9.52052108 31.1619239,8.97714759 Z M30.613827,11.101244 L30.1155571,12.0397982 C29.9660761,12.2867861 29.6172872,12.3855813 29.3681522,12.2373886 L28.9695363,11.9904006 C28.8698824,11.941003 28.7702284,11.7928102 28.7204014,11.6940151 C28.6705744,11.5458223 28.6705744,11.3976295 28.7702284,11.2988343 L29.2684983,10.3602801 C29.3681522,10.2120873 29.5674602,10.0638946 29.7667682,10.0638946 C29.8664221,10.0638946 29.9162491,10.0638946 30.0159031,10.1132922 L30.414519,10.3108825 C30.613827,10.5084729 30.713481,10.8048584 30.613827,11.101244 Z"/>
  </g>
</svg>
