<svg xmlns="http://www.w3.org/2000/svg" width="31" height="46" viewBox="0 0 31 46">
  <g fill="none" transform="translate(1 1)">
    <path fill="#323232" stroke="#323232" stroke-width=".5" d="M14.4639877,5.07278807 C9.20305262,5.07278807 4.93787377,9.38663842 4.93787377,14.7083977 C4.93787377,20.0301569 9.20305262,24.3440072 14.4639877,24.3440072 C19.7252725,24.3440072 23.9904514,20.0301569 23.9904514,14.7083977 C23.9845076,9.38911392 19.722825,5.07880013 14.4639877,5.07278807 Z M14.4639877,22.8954475 C9.99392361,22.8954475 6.36997253,19.2298418 6.36997253,14.7083977 C6.36997253,10.1865998 9.99392361,6.52134774 14.4639877,6.52134774 C18.9344015,6.52134774 22.5583526,10.1865998 22.5583526,14.7083977 C22.5531081,19.2277199 18.9323037,22.8904964 14.4639877,22.8954475 Z"/>
    <path fill="#323232" stroke="#323232" stroke-width=".5" d="M28.7975622,14.3098316 L26.8675853,11.3483475 L27.060583,7.80156893 C27.0763165,7.51404966 26.9221282,7.24492031 26.6682943,7.11512991 L23.5474657,5.52051179 L21.9709684,2.36381173 C21.8430025,2.10706023 21.5765818,1.95109951 21.2926794,1.96736756 L17.7858556,2.16258361 L14.8580247,0.210069399 C14.6188754,0.0505722963 14.3087505,0.0505722963 14.0696012,0.210069399 L11.1424696,2.16258361 L7.63564576,1.96736756 C7.35174337,1.95145323 7.0853226,2.10706023 6.95700709,2.36381173 L5.38085942,5.52051179 L2.26003086,7.11512991 C2.00619691,7.24492031 1.85200856,7.51404966 1.86774214,7.80156893 L2.06073982,11.3483475 L0.130762969,14.3098316 C-0.0269217562,14.5517297 -0.0269217562,14.8650656 0.130762969,15.1069637 L2.06073982,18.0684478 L1.86774214,21.6152263 C1.85200856,21.902392 2.00619691,22.171875 2.26003086,22.3016654 L5.38085942,23.8962834 L6.95700709,27.0529835 C7.01574552,27.1696887 7.10490208,27.2680041 7.21468704,27.3376736 L1.30797885,38.4579154 C1.16532839,38.7259838 1.20378812,39.0555877 1.40412809,39.2826324 C1.60411844,39.5096772 1.92333379,39.5860661 2.20304058,39.4739583 L8.05835262,37.122878 L9.35269584,43.3591821 C9.41458094,43.6569573 9.65373025,43.8836484 9.95126837,43.9271476 C10.249156,43.9702932 10.5417993,43.821052 10.6841002,43.5529835 L14.464687,36.435378 L18.244225,43.5529835 C18.3865258,43.821052 18.6791691,43.9706468 18.9770568,43.9271476 C19.2745949,43.8836484 19.5137442,43.6569573 19.5756293,43.3591821 L20.8699725,37.122878 L26.7256342,39.4736047 C27.0049914,39.5857125 27.3242067,39.5093236 27.5245467,39.2822788 C27.724537,39.055234 27.7629968,38.7256302 27.6206959,38.4575617 L21.7139877,27.3376736 C21.8237727,27.2680041 21.9129292,27.1696887 21.9716676,27.0529835 L23.548165,23.8962834 L26.6689935,22.3016654 C26.9228275,22.171875 27.0766662,21.902392 27.0609327,21.6152263 L26.867935,18.0684478 L28.7982615,15.1069637 C28.9555965,14.8650656 28.9555965,14.551376 28.7975622,14.3098316 Z M10.3512491,41.119856 L9.28521651,35.9841178 C9.24151235,35.7751093 9.10935093,35.5958076 8.92299622,35.4950167 C8.7369912,35.3938721 8.51637254,35.380787 8.32022808,35.4596515 L3.49773341,37.395544 L8.8156588,27.3840021 L9.63415077,27.3387346 L13.6521388,34.9054784 L10.3512491,41.119856 Z M20.6084467,35.4596515 C20.4123023,35.380787 20.191334,35.3938721 20.0053289,35.4946631 C19.8193239,35.5958076 19.6868128,35.7751093 19.6434583,35.9841178 L18.5774258,41.1195023 L11.2550516,27.3295397 L14.0703005,29.2067258 C14.3094498,29.366223 14.6195747,29.366223 14.8587239,29.2067258 L17.7858556,27.2545653 L20.1130161,27.3843557 L25.4305917,37.395544 L20.6084467,35.4596515 Z M25.5421249,17.4704218 C25.4575135,17.6002122 25.4162568,17.7536973 25.424648,17.9089506 L25.6050588,21.2223187 L22.6919127,22.710841 C22.5555556,22.7805106 22.4447218,22.8926183 22.375844,23.0308964 L20.9042366,25.9771734 L17.6281708,25.7950425 C17.4750313,25.7865548 17.3229407,25.8279321 17.1949749,25.9135159 L14.4639877,27.7344715 L11.7333502,25.9135159 C11.6165726,25.8353588 11.4795163,25.7939815 11.3396629,25.7939815 C11.3263769,25.7939815 11.3134404,25.7939815 11.3001543,25.7950425 L8.0244382,25.9771734 L6.55283087,23.0305427 C6.48395301,22.8926183 6.37311921,22.7805106 6.2364125,22.710841 L3.32326628,21.2223187 L3.50367716,17.908597 C3.51206836,17.7536973 3.47116127,17.5998586 3.38655001,17.4704218 L1.5859375,14.708044 L3.38655001,11.9460198 C3.47116127,11.8162294 3.51206836,11.6627443 3.50367716,11.507491 L3.32326628,8.19447662 L6.2364125,6.70595417 C6.37311921,6.63593107 6.48395301,6.52382333 6.55283087,6.3858989 L8.0244382,3.43926824 L11.3001543,3.62175281 C11.4536434,3.63024046 11.6057339,3.58886317 11.7336998,3.50327928 L14.4639877,1.68232379 L17.1949749,3.503633 C17.3229407,3.5892168 17.4750313,3.63059409 17.6285204,3.62210644 L20.9042366,3.43962196 L22.3754943,6.38625253 C22.4443721,6.52453058 22.5552059,6.63663842 22.6919127,6.70630789 L25.6050588,8.19483025 L25.424648,11.5078447 C25.4162568,11.663098 25.4571639,11.8169368 25.5417752,11.9463735 L27.342038,14.7083977 L25.5421249,17.4704218 Z"/>
    <path fill="#FFC500" d="M19.6308715,12.8414674 L16.5047985,12.382073 L15.1066141,9.51678245 C14.9859906,9.2695795 14.7370515,9.11291152 14.464687,9.11291152 C14.1919729,9.11291152 13.9430339,9.2695795 13.8224103,9.51678245 L12.424226,12.382073 L9.2974537,12.8414674 C9.02788626,12.8810764 8.80377122,13.0724023 8.71950957,13.3344586 C8.63524783,13.5968686 8.70552423,13.8843879 8.90061967,14.0767747 L11.1627484,16.3076132 L10.628858,19.4568866 C10.5827064,19.7284915 10.6931906,20.0032793 10.9138093,20.1652521 C11.1344281,20.3275785 11.4267216,20.3487976 11.6679688,20.2204218 L14.4639877,18.7336677 L17.2603564,20.2207754 C17.5016035,20.3491512 17.7938971,20.3275785 18.0145158,20.1656057 C18.2351346,20.003633 18.3456188,19.7288451 18.2994671,19.4572402 L17.7655768,16.3076132 L20.0277054,14.0771283 C20.2228009,13.8847415 20.2930772,13.5968686 20.2088156,13.3348122 C20.1245539,13.0724023 19.9004389,12.88143 19.6308715,12.841821 L19.6308715,12.8414674 Z M16.4960576,15.5359439 C16.3271846,15.7025141 16.2502653,15.9422904 16.2901235,16.1771155 L16.642554,18.2555298 L14.7971884,17.2741448 C14.5884573,17.1634516 14.3395182,17.1634516 14.130787,17.2741448 L12.2857711,18.2555298 L12.6382017,16.1771155 C12.6780599,15.9422904 12.6007909,15.7025141 12.4322676,15.5359439 L10.9393326,14.0640432 L13.0021701,13.7609632 C13.2357253,13.726659 13.4371142,13.5784787 13.5416546,13.3645191 L14.4639877,11.473894 L15.3866705,13.3648727 C15.491211,13.5784787 15.6925998,13.726659 15.9258054,13.7609632 L17.9889926,14.0640432 L16.4960576,15.5359439 Z"/>
  </g>
</svg>
