<svg xmlns="http://www.w3.org/2000/svg" width="54" height="31" viewBox="0 0 54 31">
  <path fill="#FFC500" fill-rule="evenodd" d="M29.5599663,30.1680463 C29.5599663,30.1680463 30.5020617,30.0631813 30.9845983,29.5439713 C31.4262853,29.0682421 31.4109667,28.1704949 31.4109667,28.1704949 C31.4109667,28.1704949 31.3522453,23.9784503 33.2951574,23.3594907 C35.2099854,22.7507619 37.6686245,27.4134203 40.2778967,29.206357 C42.248893,30.5619297 43.7450119,30.2652383 43.7450119,30.2652383 L50.7175388,30.1680463 C50.7175388,30.1680463 54.3633712,29.9429701 52.6349199,27.0706906 C52.491946,26.8353837 51.6264438,24.945255 47.4521188,21.0626902 C43.0786518,16.9985299 43.6658657,17.6558548 48.930366,10.6247807 C52.1370646,6.34321717 53.4187228,3.72926383 53.0178855,2.61155579 C52.637473,1.54244376 50.2784049,1.82634672 50.2784049,1.82634672 L42.4301634,1.87494272 C42.4301634,1.87494272 41.8480557,1.7956545 41.4165811,2.05398062 C40.9953189,2.30719136 40.7221368,2.89801643 40.7221368,2.89801643 C40.7221368,2.89801643 39.4813283,6.21021759 37.8243638,9.02878567 C34.3291645,14.972844 32.9326167,15.2874391 32.3607214,14.9191326 C31.0305542,14.057193 31.3624577,11.4611434 31.3624577,9.61705306 C31.3624577,3.85459036 32.2356193,1.45292481 29.6646436,0.831407527 C28.8119069,0.6242351 28.1838433,0.488677832 26.0009394,0.465658674 C23.2001844,0.437524147 20.8309039,0.475889411 19.4879712,1.13321427 C18.5943849,1.57057829 17.9050468,2.54761368 18.3263089,2.60388274 C18.844589,2.67294021 20.0190169,2.92103559 20.6419742,3.77018677 C21.446202,4.86743333 21.4181178,7.32792562 21.4181178,7.32792562 C21.4181178,7.32792562 21.8802296,14.1109044 20.3381549,14.9523825 C19.2811698,15.5304191 17.8310068,14.3513267 14.7136668,8.95717051 C13.1179769,6.19487148 11.9129118,3.14099644 11.9129118,3.14099644 C11.9129118,3.14099644 11.6805794,2.57063284 11.2644234,2.26371073 C10.7614619,1.89284651 10.0593583,1.77775071 10.0593583,1.77775071 L2.60174169,1.82634672 C2.60174169,1.82634672 1.48092906,1.85703893 1.06987932,2.34555663 C0.704785457,2.77780527 1.04179518,3.67555246 1.04179518,3.67555246 C1.04179518,3.67555246 6.88074392,17.3617211 13.4932832,24.2597956 C19.556905,30.5823912 26.4400733,30.1680463 26.4400733,30.1680463 L29.5599663,30.1680463 Z"/>
</svg>
